<?xml version="1.0" encoding="UTF-8"?>
<svg xmlns="http://www.w3.org/2000/svg" viewBox="0 0 192.9 192.9">
  <defs>
    <style>
      .orange {
        fill: #ee4719;
        stroke-width: 0px;
      }
    </style>
  </defs>
  <g>
    <path class="orange" d="m36.94,109.74c-.95-4.28-1.47-8.72-1.47-13.29,0-33.68,27.3-60.97,60.97-60.97s60.97,27.3,60.97,60.97c0,4.57-.52,9.01-1.47,13.29h36.03c.6-4.34.92-8.78.92-13.29C192.9,43.18,149.71,0,96.45,0S0,43.18,0,96.45c0,4.51.32,8.94.92,13.29h36.03Z"/>
    <path class="orange" d="m8.6,136.31c15.17,33.37,48.8,56.58,87.85,56.58s72.68-23.21,87.85-56.58H8.6Z"/>
  </g>
</svg>
